Jump_normalized_Motion_pl05
version=1
nRows=18
nColumns=43
inDegrees=yes
endheader
time		pelvis_tilt		pelvis_list		pelvis_rotation		pelvis_tx		pelvis_ty		pelvis_tz		hip_flexion_r		hip_adduction_r		hip_rotation_r		knee_angle_r		ankle_angle_r		subtalar_angle_r		mtp_angle_r		hip_flexion_l		hip_adduction_l		hip_rotation_l		knee_angle_l		ankle_angle_l		subtalar_angle_l		mtp_angle_l		lumbar_extension		lumbar_bending		lumbar_rotation		neck_flexion		neck_lateral_bending		neck_rotation		arm_flex_r		arm_add_r		arm_rot_r		elbow_flex_r		pro_sup_r		wrist_flex_r		wrist_dev_r		hand_finger_flex_r		arm_flex_l		arm_add_l		arm_rot_l		elbow_flex_l		pro_sup_l		wrist_flex_l		wrist_dev_l		hand_finger_flex_l		
0.694167		3.526893		-20.610914		89.017422		0.064317		1.822707		1.852645		80.485771		7.727590		-2.808856		-123.837797		27.947797		-4.851449		-3.134441		82.133261		-10.535789		1.937348		-127.837652		20.654244		-0.936987		27.329069		-48.267412		-1.154341		3.543948		38.716005		-0.242031		1.579176		71.836429		-24.830450		13.725311		85.789789		151.480799		3.517982		5.834677		-26.628938		74.419502		-28.387377		11.161202		88.628985		118.802749		-4.875721		-1.515539		26.104943		
0.698308		3.483012		-20.739096		89.016310		0.064338		1.825370		1.849483		80.027227		7.696533		-2.726346		-123.413485		27.926310		-4.850715		-3.223389		81.654719		-10.541639		1.824087		-127.421373		20.626640		-0.914502		27.357341		-48.049166		-1.198239		3.479021		38.642846		-0.189947		1.558646		73.078311		-24.811186		13.922534		85.879548		151.383532		3.664531		6.022983		-26.512733		76.134007		-28.299106		11.844829		88.570119		118.656450		-4.836124		-1.507810		26.129006		
0.702449		3.484792		-20.894176		89.052694		0.064301		1.827941		1.846289		79.601112		7.625888		-2.703382		-122.998772		27.856404		-4.824586		-3.279548		81.228632		-10.516432		1.759517		-127.020383		20.587991		-0.918510		27.377757		-47.796971		-1.199852		3.413338		38.514299		-0.159554		1.554710		74.313866		-24.851287		14.181890		85.988732		151.309767		3.828848		6.139694		-26.388064		77.825518		-28.201680		12.506284		88.523716		118.591943		-4.706541		-1.480504		26.155651		
0.706591		3.491311		-21.106823		89.091976		0.064347		1.830407		1.843052		79.239839		7.553180		-2.699345		-122.575568		27.791149		-4.778648		-3.321251		80.866777		-10.498608		1.729159		-126.620597		20.549007		-0.917957		27.394001		-47.457183		-1.188892		3.361075		38.462005		-0.152312		1.557805		75.499347		-24.777489		14.354716		85.990202		151.251331		3.982921		6.254064		-26.260582		79.409327		-27.967270		12.975612		88.422398		118.539482		-4.615570		-1.427406		26.177535		
0.710732		3.488619		-21.203553		89.136771		0.064288		1.833263		1.839514		78.690804		7.438521		-2.688677		-122.107795		27.709017		-4.693557		-3.385293		80.313773		-10.438148		1.675990		-126.148332		20.461336		-0.908496		27.421627		-47.260915		-1.190847		3.285650		38.332160		-0.044336		1.525941		76.673800		-24.820451		14.620435		86.138249		151.137708		4.194681		6.453371		-26.029786		81.075991		-27.881576		13.675246		88.340825		118.399552		-4.497919		-1.365569		26.249585		
0.714874		3.512275		-21.454705		89.145052		0.064205		1.835746		1.836146		78.367682		7.365519		-2.685461		-121.689268		27.613869		-4.574609		-3.428402		79.992750		-10.408206		1.669550		-125.744804		20.380131		-0.866913		27.437253		-46.868948		-1.180218		3.211601		38.242050		-0.024003		1.544706		77.892432		-24.726120		14.873322		86.072764		151.116738		4.392356		6.503863		-25.841494		82.641491		-27.697040		14.196853		88.214754		118.379348		-4.396664		-1.339076		26.309037		
0.719015		3.507136		-21.662581		89.166353		0.064166		1.838540		1.832546		77.925154		7.288828		-2.641346		-121.185705		27.544684		-4.437539		-3.482259		79.537744		-10.369430		1.636200		-125.253158		20.270165		-0.797528		27.458351		-46.543749		-1.160738		3.136314		38.132498		0.062799		1.553350		79.078276		-24.632860		15.140571		86.061832		151.073532		4.591731		6.595202		-25.600788		84.179464		-27.585346		14.758288		88.102935		118.298421		-4.351254		-1.325731		26.378041		
0.723157		3.400705		-21.596587		89.154547		0.064100		1.842067		1.828501		77.116300		7.184747		-2.471242		-120.673850		27.572805		-4.234136		-3.637262		78.683057		-10.321635		1.471607		-124.708120		20.173256		-0.694786		27.530956		-46.563457		-1.238952		2.969812		38.118381		0.228387		1.557250		80.323726		-24.601268		15.480605		86.110017		150.881475		4.738312		6.914303		-25.054422		85.891824		-27.618909		15.618690		87.949039		117.830285		-4.648480		-1.259612		26.526155		
0.727298		3.426096		-21.984038		89.141674		0.063932		1.844613		1.824833		76.852940		7.180091		-2.399902		-120.149012		27.472685		-4.142445		-3.694494		78.419078		-10.317135		1.450461		-124.214725		20.119094		-0.628246		27.547771		-46.006069		-1.182747		2.947379		37.983515		0.205951		1.599744		81.462365		-24.515883		15.817702		85.990827		150.922326		4.854003		6.823343		-24.903661		87.191719		-27.393374		15.992431		87.812663		117.847321		-4.623860		-1.215173		26.582363		
0.731439		3.425088		-22.178095		89.149856		0.063807		1.847404		1.820971		76.374377		7.147992		-2.314138		-119.656905		27.407074		-4.053405		-3.787754		77.935843		-10.309609		1.400679		-123.742469		20.042163		-0.526638		27.575493		-45.682325		-1.162420		2.869776		37.849445		0.266818		1.671472		82.666771		-24.528691		16.249400		85.926361		151.001157		4.990815		6.814601		-24.695448		88.678282		-27.300751		16.585513		87.664720		117.799947		-4.619015		-1.165427		26.670519		
0.735581		3.385003		-22.221713		89.151296		0.063729		1.850616		1.816749		75.655101		7.122406		-2.194577		-119.106718		27.379062		-3.999575		-3.959408		77.205221		-10.310813		1.282948		-123.193314		20.000560		-0.427064		27.623234		-45.533878		-1.190957		2.745734		37.754706		0.401539		1.777558		83.813928		-24.551168		16.671856		85.937397		151.147969		5.123485		6.959379		-24.404198		90.210076		-27.279552		17.325285		87.515594		117.568271		-4.737604		-1.086926		26.790550		
0.739722		3.365738		-22.410630		89.134767		0.063648		1.853413		1.812679		75.134204		7.109366		-2.111563		-118.579708		27.348279		-3.991558		-4.119930		76.668681		-10.318421		1.186860		-122.677674		19.969144		-0.386393		27.659703		-45.196983		-1.196169		2.672435		37.639175		0.494339		1.907212		84.890850		-24.459859		16.957114		85.918764		151.284092		5.344847		7.054571		-24.110118		91.637383		-27.165264		17.911377		87.306650		117.382478		-4.806486		-1.014769		26.879668		
0.743864		3.396673		-22.770077		89.129080		0.063539		1.855897		1.808614		74.799169		7.110958		-2.079808		-118.038933		27.331081		-3.985952		-4.179720		76.341299		-10.337445		1.138472		-122.168259		19.941498		-0.366002		27.670240		-44.647464		-1.140670		2.647640		37.534815		0.488467		1.989663		85.793826		-24.201796		17.012368		85.875931		151.315375		5.489649		7.080373		-23.970910		92.765175		-26.863137		18.095256		87.144832		117.339502		-4.828751		-0.976032		26.890023		
0.748005		3.430928		-23.076567		89.141599		0.063471		1.858537		1.804363		74.395995		7.110239		-2.056215		-117.477447		27.295656		-3.981592		-4.250571		75.934841		-10.367916		1.087246		-121.635742		19.879941		-0.352624		27.678904		-44.158137		-1.083906		2.599814		37.351997		0.513608		2.091552		86.705100		-24.036802		17.128953		85.903667		151.281153		5.776004		7.070327		-23.750513		93.965779		-26.686265		18.435715		87.001512		117.301420		-4.787652		-0.964129		26.911657		
0.752146		3.455851		-23.230009		89.156581		0.063352		1.861509		1.799909		73.796234		7.105700		-2.011012		-116.902192		27.255035		-3.992428		-4.377543		75.326195		-10.377079		1.024757		-121.073276		19.760361		-0.353054		27.693026		-43.840578		-1.046060		2.532785		37.178491		0.615062		2.233324		87.710798		-23.955495		17.334017		85.928943		151.114212		6.373901		7.058480		-23.309902		95.380244		-26.675804		19.145216		86.754085		117.197776		-4.690659		-0.964963		26.959257		
0.756288		3.456898		-23.259765		89.150540		0.063189		1.864868		1.795254		73.035389		7.099848		-1.912156		-116.295886		27.263148		-3.970708		-4.548359		74.531208		-10.387324		0.923433		-120.474265		19.604026		-0.368109		27.710495		-43.685628		-1.032566		2.460807		37.092088		0.665111		2.347558		88.757186		-23.852887		17.452691		85.929810		150.633928		7.155738		6.982157		-22.730357		96.835107		-26.642899		19.874990		86.434290		116.964864		-4.695480		-0.948331		26.979731		
0.760429		3.416883		-23.297635		89.104856		0.062932		1.868325		1.790424		72.254019		7.097286		-1.748931		-115.671728		27.282042		-3.871768		-4.706955		73.705606		-10.383489		0.772021		-119.848401		19.457726		-0.374536		27.724897		-43.513682		-1.046444		2.400106		36.990434		0.661451		2.433115		89.786730		-23.800380		17.652565		85.872593		150.110129		7.715370		6.879419		-22.323641		98.157647		-26.551580		20.508076		86.149594		116.735454		-4.756723		-0.910528		26.984904		
0.764571		3.421309		-23.608423		89.070940		0.062606		1.871255		1.785758		71.798732		7.117808		-1.619962		-115.069696		27.277698		-3.814898		-4.756719		73.218141		-10.365932		0.676865		-119.241852		19.383131		-0.353334		27.727342		-43.001634		-0.992572		2.387170		36.885011		0.596448		2.499527		90.651735		-23.605090		17.772179		85.725066		149.971301		7.850091		6.866700		-22.240701		99.142565		-26.250505		20.713135		85.884691		116.694011		-4.793278		-0.855573		26.964893		
